# xmcd
#
# Track frame offsets:
#	150
#	11800
#	29017
#	40712
#	53982
#	66230
#	72907
#	82950
#	90777
#	100462
#	112655
#	124865
#	137587
#	150342
#	163125
#	173950
#	187862
#	198880
#	208890
#	222052
#
# Disc length: 3096 seconds
#
# Revision: 2
# Processed by: cddbd v1.5.2PL0 Copyright (c) Steve Scherf et al.
# Submitted via: audiograbber 1.83.01
#
DISCID=0b0c1614
DTITLE=Various Artist - Country Greats
DYEAR=1997
DGENRE=Country
TTITLE0=Patsy Cline - I've Loved And Lost Again
TTITLE1=Kenny Rogers - Something's Burning
TTITLE2=George Jones - Your Tender Years
TTITLE3=Lynn Anderson - (I Never Promised You A) Rose Garden
TTITLE4=Willie Nelson - I Can't Find The Time
TTITLE5=Jim Reeves - Have I Told You Lately That I Love You (Live)
TTITLE6=Freddy Fender - Before The Next Tear Drop Falls (Live)
TTITLE7=Roy Drusky - Hello Walls
TTITLE8=Barbara Mandrell - Release Me (Live)
TTITLE9=Waylon Jennings - Don't Think Twice
TTITLE10=Faron Young - Sweet Dreams
TTITLE11=Kitty Wells - Making Believe
TTITLE12=Box Car Willie - North To Alaska
TTITLE13=Dolly Parton - Little Blossom
TTITLE14=Billie Jo Spears - I'm So Lonesome I Could Cry
TTITLE15=Johnny Paycheck - Almost Persuaded
TTITLE16=Stonewell Jackson - Should I Go Home
TTITLE17=Mickey Gilley - Night After Night
TTITLE18=Donna Fargo - Daddy
TTITLE19=Ferlin Husky - Wings Of A Dove
EXTD=ID3G:   2
EXTT0=
EXTT1=
EXTT2=
EXTT3=
EXTT4=
EXTT5=
EXTT6=
EXTT7=
EXTT8=
EXTT9=
EXTT10=
EXTT11=
EXTT12=
EXTT13=
EXTT14=
EXTT15=
EXTT16=
EXTT17=
EXTT18=
EXTT19=
PLAYORDER=
